<?xml version="1.0" standalone="no"?>
<!DOCTYPE svg PUBLIC "-//W3C//DTD SVG 20010904//EN"
 "http://www.w3.org/TR/2001/REC-SVG-20010904/DTD/svg10.dtd">
<svg version="1.0" xmlns="http://www.w3.org/2000/svg"
 width="1200.000000pt" height="600.000000pt" viewBox="0 0 1200.000000 600.000000"
 preserveAspectRatio="xMidYMid meet">
<metadata>
Created by potrace 1.16, written by Peter Selinger 2001-2019
</metadata>
<g transform="translate(0.000000,600.000000) scale(0.100000,-0.100000)"
fill="#000000" stroke="none">
<path d="M5112 3718 c-5 -7 -12 -22 -14 -33 -1 -11 -6 -22 -10 -25 -3 -3 -8
-14 -10 -25 -1 -11 -6 -22 -9 -25 -6 -6 -47 -109 -51 -130 -2 -8 -7 -18 -11
-21 -4 -3 -9 -16 -10 -27 -1 -12 -4 -22 -8 -22 -7 0 -36 -83 -31 -89 2 -2 -1
-7 -6 -10 -6 -3 -12 -15 -14 -26 -1 -11 -6 -22 -10 -25 -3 -3 -8 -14 -10 -25
-1 -11 -6 -22 -10 -25 -3 -3 -8 -14 -10 -25 -1 -11 -6 -22 -10 -25 -3 -3 -8
-14 -10 -25 -1 -11 -6 -22 -10 -25 -3 -3 -8 -14 -10 -25 -1 -11 -6 -22 -10
-25 -3 -3 -8 -14 -10 -25 -1 -11 -7 -23 -11 -26 -4 -3 -9 -16 -10 -27 -1 -12
-6 -22 -11 -22 -5 0 -6 -3 -3 -7 4 -3 2 -12 -4 -20 -6 -7 -8 -13 -3 -13 5 0 4
-4 -2 -8 -10 -7 -61 -123 -66 -152 -2 -8 -6 -17 -10 -20 -3 -3 -8 -14 -10 -25
-1 -11 -6 -22 -10 -25 -3 -3 -8 -14 -10 -25 -1 -11 -6 -22 -10 -25 -3 -3 -8
-14 -10 -25 -1 -11 -6 -22 -10 -25 -3 -3 -8 -14 -10 -25 -1 -11 -7 -23 -11
-26 -4 -3 -9 -16 -10 -27 -1 -12 -4 -22 -8 -22 -7 0 -31 -70 -29 -84 1 -5 -3
-12 -9 -15 -17 -11 -24 -73 -9 -82 22 -14 242 -11 260 4 18 14 60 122 51 131
-4 3 -1 6 5 6 8 0 21 34 27 70 0 3 4 11 8 18 5 6 5 12 0 12 -4 0 -2 4 5 9 7 4
14 18 15 29 1 12 5 22 10 22 4 0 5 4 2 10 -4 6 101 9 289 9 l294 0 6 -34 c4
-19 11 -35 16 -35 6 0 9 -3 9 -7 -1 -5 -1 -10 1 -13 1 -3 4 -16 6 -30 2 -13 9
-27 15 -31 6 -3 10 -9 10 -13 -1 -3 -1 -7 0 -8 0 -2 3 -14 5 -28 3 -14 9 -26
14 -28 5 -2 6 -10 3 -18 -3 -8 0 -14 7 -14 6 0 9 -4 5 -9 -3 -5 -1 -12 5 -16
6 -4 8 -10 5 -15 -12 -20 39 -30 147 -30 125 0 152 9 142 48 -4 12 -9 22 -13
22 -4 0 -7 10 -8 22 -1 11 -6 24 -10 27 -4 3 -10 15 -11 26 -2 11 -7 22 -10
25 -4 3 -9 14 -10 25 -2 11 -7 22 -10 25 -4 3 -9 14 -10 25 -2 11 -7 22 -10
25 -4 3 -9 14 -10 25 -2 11 -7 22 -10 25 -4 3 -9 14 -10 25 -2 11 -7 22 -10
25 -4 3 -9 14 -10 25 -2 11 -7 22 -10 25 -4 3 -9 14 -10 25 -2 11 -7 22 -10
25 -4 3 -9 14 -10 25 -2 11 -11 33 -20 50 -9 16 -16 32 -17 35 -2 18 -40 110
-45 110 -3 0 -6 10 -7 22 -1 11 -6 24 -10 27 -4 3 -10 15 -11 26 -2 11 -7 22
-10 25 -4 3 -9 14 -10 25 -2 11 -7 22 -10 25 -4 3 -9 14 -10 25 -2 11 -7 22
-10 25 -4 3 -9 14 -10 25 -2 11 -7 22 -10 25 -4 3 -9 14 -10 25 -2 11 -7 22
-10 25 -4 3 -9 14 -10 25 -2 11 -7 22 -10 25 -4 3 -9 14 -10 25 -2 11 -7 22
-10 25 -4 3 -8 12 -10 20 -6 32 -66 175 -76 182 -6 4 -8 8 -4 8 10 0 -23 83
-36 92 -6 4 -7 8 -3 8 5 0 2 7 -7 15 -19 20 -248 22 -264 3z m154 -356 c2 -28
17 -72 25 -72 5 0 8 -3 8 -7 -1 -5 -1 -10 1 -13 1 -3 4 -16 6 -30 2 -13 10
-28 17 -32 6 -4 8 -8 4 -8 -5 0 -5 -6 0 -12 4 -7 9 -22 10 -33 2 -11 8 -21 13
-23 5 -2 6 -10 3 -18 -3 -8 0 -14 6 -14 6 0 10 -3 9 -7 -4 -16 14 -73 23 -73
5 0 8 -3 8 -7 -1 -5 -1 -10 1 -13 1 -3 4 -16 6 -30 2 -13 8 -27 12 -30 4 -3 9
-21 10 -40 l3 -35 -185 0 c-117 0 -186 4 -187 10 -4 33 -3 41 4 46 4 3 9 16
10 27 1 12 5 22 10 22 5 0 7 6 4 14 -3 8 -3 16 2 18 9 4 84 204 84 224 0 8 5
14 10 14 5 0 7 6 4 14 -3 8 -2 16 3 18 5 2 11 14 14 28 2 14 5 27 6 30 2 3 2
8 1 12 0 4 10 10 24 14 15 4 22 11 18 18 -3 6 -2 7 3 3 5 -5 9 -12 10 -15z"/>
<path d="M8982 3718 c-9 -9 -12 -178 -12 -701 0 -583 2 -691 14 -703 19 -18
216 -20 234 -2 7 7 12 33 12 60 0 39 3 46 15 41 9 -3 13 -8 10 -11 -7 -8 26
-42 40 -42 7 0 16 -7 19 -16 3 -8 10 -12 16 -9 5 3 10 1 10 -5 0 -25 119 -55
208 -53 58 2 87 5 97 11 5 3 20 7 34 8 13 2 28 9 32 16 5 7 9 10 9 5 0 -11 80
32 80 44 0 6 4 8 8 5 17 -10 129 124 115 138 -3 3 -1 6 6 6 7 0 9 5 6 10 -3 6
-2 10 3 10 4 0 16 24 25 54 10 30 24 57 32 60 8 3 15 16 15 29 0 23 16 47 32
47 4 0 8 -12 8 -27 0 -34 8 -46 37 -61 21 -12 22 -17 20 -167 -2 -121 1 -156
11 -160 8 -3 59 -5 114 -5 73 0 103 4 114 14 21 22 21 1380 0 1402 -11 10 -41
14 -114 14 -55 0 -106 -2 -114 -5 -11 -4 -13 -83 -11 -423 0 -229 -1 -409 -4
-399 -5 19 -12 21 -32 8 -8 -5 -15 -35 -18 -75 -8 -95 -35 -83 -49 22 -6 48
-16 64 -27 45 -2 -5 -2 -2 -1 5 2 7 -2 25 -8 40 -6 15 -13 36 -15 47 -2 10 -7
22 -11 25 -4 3 -8 11 -10 18 -4 21 -33 62 -44 62 -5 0 -7 4 -4 8 3 5 -13 26
-34 47 -22 22 -40 35 -40 30 0 -6 -5 -2 -11 8 -6 9 -14 15 -20 12 -5 -4 -9 -2
-9 4 0 10 -38 27 -52 23 -5 -1 -8 2 -8 7 0 14 -101 35 -165 34 -81 0 -175 -19
-175 -35 0 -5 -4 -7 -9 -4 -5 3 -20 -5 -35 -19 -14 -13 -26 -21 -26 -18 0 4
-11 -4 -25 -17 -13 -12 -22 -27 -19 -31 3 -5 -2 -9 -10 -9 -14 0 -16 33 -16
283 0 207 -3 286 -12 295 -8 8 -49 12 -118 12 -69 0 -110 -4 -118 -12z m569
-691 c9 -1 28 -11 42 -20 15 -10 27 -15 27 -13 0 6 66 -57 67 -64 4 -23 17
-50 25 -50 5 0 6 -4 3 -10 -3 -5 -3 -15 1 -22 4 -7 7 -42 5 -78 -4 -93 -4
-100 -12 -100 -4 0 -10 -9 -14 -20 -6 -18 -76 -109 -79 -102 -1 3 -15 -1 -71
-22 -34 -13 -83 -13 -135 -1 -19 5 -38 8 -42 7 -5 -1 -8 3 -8 9 0 5 -4 7 -10
4 -5 -3 -10 -1 -10 5 0 6 -8 14 -17 17 -24 9 -35 21 -58 68 -11 22 -22 42 -25
45 -17 17 -14 138 4 188 8 23 12 42 9 42 -4 0 2 7 13 15 10 8 15 15 10 15 -13
0 77 70 92 70 6 0 12 4 12 10 0 5 6 7 14 4 8 -3 16 -2 19 3 5 7 100 8 138 0z"/>
<path d="M6094 3708 c-3 -5 -10 -6 -15 -3 -5 4 -9 1 -9 -5 0 -6 -4 -9 -9 -6
-10 7 -60 -48 -62 -67 -5 -59 -4 -99 3 -103 5 -3 6 -10 3 -15 -4 -5 -1 -9 4
-9 6 0 10 -4 9 -9 -2 -5 11 -22 28 -39 32 -31 102 -51 126 -36 7 5 21 9 32 9
23 2 89 71 81 85 -3 5 -1 11 5 15 13 8 13 85 -1 85 -5 0 -8 4 -4 9 3 5 -2 17
-11 25 -8 9 -12 16 -8 16 3 0 1 7 -6 15 -7 8 -16 13 -20 10 -4 -3 -11 2 -14
11 -3 8 -10 13 -15 9 -5 -3 -13 -1 -16 5 -8 12 -94 10 -101 -2z"/>
<path d="M7295 3602 c-3 -8 -5 -90 -5 -183 l0 -169 -73 0 c-80 0 -97 -9 -97
-52 0 -15 -4 -28 -10 -28 -5 0 -10 -9 -10 -20 0 -11 4 -20 9 -20 6 0 11 -21
13 -47 l3 -48 65 2 c116 4 105 34 105 -278 0 -202 3 -273 12 -276 7 -3 9 -11
6 -19 -3 -8 0 -14 7 -14 6 0 8 -4 5 -10 -3 -5 -1 -10 4 -10 6 0 10 -4 8 -9 -3
-12 80 -91 98 -92 18 -2 34 -5 38 -9 7 -7 71 -13 137 -14 l75 -1 3 116 3 116
-47 6 c-28 3 -54 13 -68 26 -20 20 -21 34 -26 234 -3 135 -1 216 5 222 6 6 48
10 95 10 l85 0 0 105 0 105 -92 3 -93 3 -2 142 c-1 78 -3 159 -3 180 l-2 38
-121 2 c-94 2 -123 -1 -127 -11z"/>
<path d="M628 3558 c-16 -5 -28 -14 -28 -20 0 -5 -7 -16 -15 -24 -21 -21 -23
-1255 -2 -1276 7 -7 15 -17 18 -23 2 -5 7 -9 11 -8 5 2 8 -2 8 -9 0 -6 3 -8 7
-5 3 4 12 2 19 -4 8 -6 21 -8 31 -3 10 4 20 8 23 8 27 5 100 40 100 47 0 6 5
7 10 4 6 -3 10 -1 10 5 0 6 5 8 10 5 6 -3 10 -1 10 5 0 6 5 8 10 5 6 -3 10 -1
10 5 0 6 5 8 10 5 6 -3 10 -1 10 4 0 6 3 10 8 9 12 -5 162 64 162 74 0 5 5 6
10 3 6 -3 10 -1 10 5 0 6 5 8 10 5 6 -3 10 -1 10 5 0 6 5 8 10 5 6 -3 10 -1
10 5 0 6 5 8 10 5 6 -3 10 -1 10 4 0 6 3 10 8 9 12 -4 142 54 142 64 0 5 5 6
10 3 6 -3 10 -1 10 5 0 6 5 8 10 5 6 -3 10 -1 10 5 0 6 5 8 10 5 6 -3 10 -1
10 5 0 6 5 8 10 5 6 -3 10 -1 10 5 0 6 5 8 10 5 6 -3 10 -1 10 4 0 6 3 10 8 9
13 -4 122 44 122 54 0 5 5 6 10 3 6 -3 10 -1 10 5 0 6 5 8 10 5 6 -3 10 -1 10
5 0 6 5 8 10 5 6 -3 10 -1 10 5 0 6 5 8 10 5 6 -3 10 -1 10 5 0 6 5 8 10 5 6
-3 10 -1 10 5 0 6 5 8 10 5 6 -3 10 -1 10 4 0 6 3 10 8 9 4 -1 21 5 38 15 17
9 34 13 38 10 3 -4 6 -1 6 6 0 7 5 9 10 6 6 -3 10 -1 10 5 0 6 5 8 10 5 6 -3
10 -1 10 5 0 6 5 8 10 5 6 -3 10 -1 10 6 0 7 3 9 7 6 3 -4 57 20 119 52 62 33
115 57 118 53 3 -3 6 0 6 7 0 7 5 9 10 6 6 -3 10 -1 10 5 0 6 5 8 10 5 6 -3
10 -1 10 6 0 7 3 10 6 7 3 -4 15 3 27 15 23 23 31 80 15 110 -8 15 -55 41 -67
37 -2 -1 -7 3 -10 9 -4 6 -16 12 -26 14 -11 2 -30 9 -42 15 -13 7 -23 10 -23
7 0 -3 -11 2 -25 11 -14 9 -25 13 -25 10 0 -4 -11 1 -25 10 -14 9 -25 13 -25
10 0 -4 -11 1 -25 10 -14 9 -25 13 -25 10 0 -4 -11 1 -25 10 -14 9 -25 13 -25
10 0 -4 -11 1 -25 10 -14 9 -25 13 -25 10 0 -4 -11 1 -25 10 -14 9 -25 13 -25
10 0 -4 -11 1 -25 10 -14 9 -25 13 -25 9 0 -4 -6 -2 -13 4 -8 6 -17 8 -20 4
-4 -3 -7 -1 -7 5 0 7 -3 11 -7 10 -5 0 -16 2 -25 5 -28 11 -48 17 -51 15 -1
-1 -13 5 -27 12 -14 8 -27 15 -30 15 -3 0 -15 6 -27 13 -13 7 -23 10 -23 7 0
-3 -11 2 -25 11 -14 9 -25 13 -25 10 0 -4 -11 1 -25 10 -14 9 -25 13 -25 10 0
-4 -11 1 -25 10 -14 9 -25 13 -25 10 0 -4 -11 1 -25 10 -14 9 -25 13 -25 10 0
-4 -11 1 -25 10 -14 9 -25 13 -25 10 0 -4 -11 1 -25 10 -14 9 -25 13 -25 9 0
-4 -6 -2 -13 4 -8 6 -17 8 -20 4 -4 -3 -7 -1 -7 5 0 7 -3 11 -7 11 -5 -1 -11
0 -15 1 -5 1 -11 3 -15 4 -5 1 -18 7 -30 14 -13 7 -23 10 -23 7 0 -3 -11 2
-25 11 -14 9 -25 13 -25 10 0 -4 -11 1 -25 10 -14 9 -25 13 -25 10 0 -4 -11 1
-25 10 -14 9 -25 13 -25 10 0 -4 -12 2 -27 11 -15 10 -30 17 -33 17 -3 -1 -15
2 -28 7 -28 11 -39 10 -74 -3z"/>
<path d="M8185 3271 c-11 -4 -26 -6 -32 -4 -7 3 -13 1 -13 -3 0 -5 -12 -10
-27 -11 -15 0 -29 -6 -31 -12 -2 -6 -8 -9 -13 -5 -5 3 -9 0 -9 -6 0 -6 -4 -8
-10 -5 -5 3 -10 1 -10 -5 0 -6 -4 -9 -9 -5 -6 3 -27 -11 -48 -32 -20 -21 -33
-31 -28 -23 8 13 6 13 -8 1 -9 -7 -15 -17 -12 -21 3 -4 -5 -14 -18 -23 -23
-15 -74 -106 -80 -142 -1 -11 -7 -27 -12 -34 -13 -22 -18 -278 -5 -286 6 -3 8
-10 5 -15 -8 -13 16 -90 27 -90 5 0 6 -4 3 -10 -3 -5 -1 -10 5 -10 6 0 8 -4 5
-10 -3 -5 -1 -10 5 -10 6 0 9 -4 5 -10 -3 -5 3 -18 15 -30 11 -11 17 -20 13
-20 -4 0 13 -20 37 -45 24 -24 47 -42 52 -39 4 3 8 0 8 -5 0 -13 94 -62 124
-65 12 -1 26 -5 31 -8 16 -10 204 -7 210 2 3 5 12 7 20 3 8 -3 15 1 15 8 0 7
3 10 6 6 17 -17 160 95 147 116 -3 6 -1 7 5 3 7 -4 12 -31 12 -62 l0 -54 125
0 125 0 -2 468 -3 467 -120 0 c-89 0 -120 -3 -121 -12 -1 -7 -2 -34 -3 -60
l-1 -48 -35 40 c-19 22 -34 37 -35 33 0 -4 -12 4 -26 17 -15 14 -30 22 -35 19
-5 -3 -9 0 -9 7 0 7 -3 9 -7 6 -3 -4 -12 -2 -20 4 -7 6 -13 8 -13 4 0 -4 -7
-2 -15 5 -17 14 -162 23 -190 11z m221 -248 c4 3 13 -1 21 -9 8 -8 18 -12 23
-9 4 3 10 -2 14 -10 3 -8 12 -15 21 -15 8 0 20 -11 25 -25 5 -14 14 -25 20
-25 6 0 9 -4 5 -9 -3 -5 1 -15 8 -23 8 -7 12 -19 9 -26 -2 -6 0 -12 5 -12 11
0 9 -144 -3 -180 -4 -14 -7 -27 -6 -30 1 -3 -22 -27 -51 -55 -59 -56 -128 -84
-192 -77 -22 2 -48 4 -57 5 -10 1 -18 4 -18 8 0 6 -45 22 -45 16 0 -1 -18 18
-40 43 -22 25 -42 47 -45 50 -3 3 -7 14 -8 25 -2 11 -7 25 -11 30 -4 6 -7 44
-7 85 1 59 7 85 26 120 13 25 29 54 35 65 6 11 15 20 20 20 6 1 26 9 45 20 39
21 168 36 188 21 7 -5 15 -6 18 -3z"/>
<path d="M6905 3262 c-3 -3 -16 -7 -28 -9 -12 -2 -24 -8 -25 -13 -2 -6 -8 -8
-13 -4 -5 3 -34 -20 -65 -50 -69 -69 -84 -71 -85 -11 -1 25 -2 51 -3 58 -1 12
-179 23 -221 13 -20 -5 -20 -12 -18 -468 l3 -463 119 -3 118 -3 6 243 c3 186
8 253 20 286 9 23 13 42 9 42 -4 0 -1 4 6 8 6 5 23 23 37 42 14 19 25 30 25
26 0 -4 12 1 28 12 15 11 30 20 35 21 4 1 8 1 10 2 14 3 79 10 104 10 17 0 36
5 41 12 10 12 17 112 14 205 l-2 53 -55 -2 c-30 -1 -57 -5 -60 -7z"/>
<path d="M10860 3263 c-8 -3 -22 -7 -30 -10 -8 -4 -21 -5 -27 -4 -7 1 -13 -3
-13 -9 0 -5 -3 -9 -7 -8 -13 4 -73 -24 -73 -34 0 -5 -5 -6 -10 -3 -6 3 -13 -1
-16 -9 -3 -9 -12 -16 -20 -16 -15 0 -90 -87 -86 -101 1 -5 -2 -9 -8 -9 -11 0
-39 -50 -43 -77 -1 -10 -6 -24 -10 -30 -4 -7 -11 -27 -14 -45 -10 -57 -5 -283
6 -283 1 0 4 -13 6 -30 2 -16 9 -31 15 -33 5 -2 8 -8 4 -13 -3 -5 0 -9 6 -9 6
0 8 -4 5 -10 -3 -5 -1 -10 5 -10 6 0 9 -4 6 -9 -3 -5 5 -20 18 -34 13 -14 22
-28 19 -30 -7 -7 100 -96 109 -91 4 3 8 1 8 -4 0 -10 60 -38 73 -34 4 1 7 -3
7 -9 0 -6 6 -9 14 -6 8 3 17 3 20 -1 7 -6 19 -10 76 -20 47 -9 194 -7 217 3
10 4 27 9 39 10 30 5 114 46 114 57 0 5 4 7 9 4 5 -3 20 5 35 19 14 13 26 21
26 18 0 -4 14 7 31 25 29 30 30 32 13 56 -9 14 -21 26 -26 26 -5 0 -6 5 -3 10
3 6 -1 13 -9 16 -9 3 -13 10 -10 15 3 5 -2 12 -10 15 -9 3 -16 10 -16 15 0 6
-10 20 -21 32 -15 15 -23 18 -26 9 -3 -6 -8 -10 -13 -7 -5 3 -18 -7 -30 -22
-12 -16 -24 -26 -26 -23 -2 3 -12 -3 -23 -12 -11 -9 -22 -14 -25 -11 -3 4 -6
1 -6 -5 0 -7 -3 -11 -7 -10 -5 1 -34 -4 -65 -11 -57 -12 -144 -11 -166 3 -7 4
-12 4 -12 1 0 -4 -7 1 -16 9 -8 9 -19 14 -24 11 -4 -3 -11 2 -14 11 -3 8 -10
13 -14 10 -8 -5 -48 35 -44 44 1 3 -5 13 -13 23 -8 9 -13 17 -10 17 2 0 -1 14
-7 31 -6 18 -7 34 -1 40 5 5 158 9 347 9 l338 1 -5 103 c-2 57 -8 110 -13 117
-4 7 -9 24 -10 38 -2 13 -8 27 -14 31 -7 4 -11 11 -11 16 1 18 -11 44 -20 44
-6 0 -8 4 -4 9 3 6 -3 14 -12 20 -10 6 -14 11 -8 11 5 0 -11 20 -35 45 -24 24
-47 42 -52 39 -4 -3 -8 -1 -8 4 0 12 -85 53 -115 56 -11 1 -25 5 -31 8 -11 7
-211 8 -234 1z m193 -212 c57 -19 117 -96 117 -149 0 -16 -19 -17 -214 -14
l-215 3 11 32 c6 18 15 38 21 45 5 6 7 12 4 12 -3 0 6 13 21 28 15 15 30 27
34 25 3 -2 12 3 20 10 7 8 18 12 25 10 6 -2 14 0 16 4 7 12 119 7 160 -6z"/>
<path d="M6023 3235 c-10 -11 -13 -121 -13 -462 -1 -413 1 -449 17 -460 18
-14 197 -19 227 -7 15 6 16 54 16 469 -1 408 -3 464 -16 469 -9 3 -61 6 -117
6 -75 -1 -105 -5 -114 -15z"/>
</g>
</svg>
