<?xml version="1.0" standalone="no"?>
<!DOCTYPE svg PUBLIC "-//W3C//DTD SVG 20010904//EN"
 "http://www.w3.org/TR/2001/REC-SVG-20010904/DTD/svg10.dtd">
<svg version="1.0" xmlns="http://www.w3.org/2000/svg"
 width="4330.000000pt" height="1680.000000pt" viewBox="0 0 4330.000000 1680.000000"
 preserveAspectRatio="xMidYMid meet">

<g transform="translate(0.000000,1680.000000) scale(0.100000,-0.100000)"
fill="#000000" stroke="none">
<path d="M28819 9341 c-61 -19 -110 -57 -137 -106 -16 -27 -17 -150 -22 -1399
l-5 -1368 -34 48 c-299 422 -719 634 -1261 637 -324 1 -605 -58 -866 -183
-408 -196 -727 -579 -888 -1064 -110 -333 -152 -710 -143 -1294 7 -524 53
-833 176 -1196 171 -504 493 -864 925 -1036 216 -86 448 -124 746 -124 444 0
730 80 1013 284 81 58 249 227 311 312 27 37 51 66 53 65 1 -2 25 -96 52 -210
28 -113 57 -221 64 -239 19 -45 63 -87 117 -112 42 -19 62 -21 270 -21 221 0
226 1 274 25 27 14 63 42 80 63 l31 39 3 3369 c2 3342 2 3370 -18 3408 -11 22
-33 49 -49 60 -66 47 -96 51 -390 50 -152 0 -288 -4 -302 -8z m-1132 -2852
c313 -42 565 -222 735 -524 55 -97 118 -251 152 -369 158 -545 148 -1433 -21
-1916 -123 -352 -317 -579 -591 -694 -135 -57 -219 -71 -432 -71 -213 1 -267
9 -407 65 -159 64 -289 172 -390 326 -125 191 -207 462 -248 819 -26 216 -31
753 -11 985 54 625 222 1039 496 1227 191 131 458 188 717 152z"/>
<path d="M20366 9300 c-27 -11 -62 -32 -78 -47 -62 -60 -58 194 -56 -3474 l3
-3345 27 -42 c15 -22 49 -54 75 -69 l48 -28 285 -3 c318 -4 346 0 410 55 76
65 70 -37 70 1248 0 687 4 1154 9 1151 8 -5 128 -157 512 -646 76 -97 198
-251 595 -755 82 -104 235 -298 339 -430 429 -546 442 -561 517 -602 30 -16
71 -18 470 -21 484 -3 490 -3 528 60 25 41 26 93 2 138 -10 19 -101 131 -202
249 -247 287 -331 384 -689 801 -435 506 -650 755 -856 994 -240 279 -255 297
-255 306 0 4 447 456 993 1005 545 548 1000 1011 1010 1028 24 44 22 108 -5
142 -45 57 -62 60 -427 63 -367 4 -464 -4 -538 -42 -57 -29 -88 -61 -389 -396
-125 -140 -231 -257 -234 -260 -3 -3 -127 -140 -275 -305 -148 -165 -288 -320
-311 -345 -23 -25 -129 -142 -235 -260 -107 -119 -275 -305 -374 -415 l-180
-199 -5 2170 -5 2171 -27 35 c-15 20 -49 47 -75 59 -47 23 -56 24 -338 26
-267 2 -294 1 -339 -17z"/>
<path d="M11660 7150 c-529 -50 -979 -242 -1314 -560 -341 -324 -566 -776
-655 -1320 -59 -361 -56 -804 9 -1170 100 -563 356 -1038 732 -1357 306 -259
681 -417 1138 -479 170 -23 510 -23 680 0 836 113 1424 570 1713 1333 116 305
173 621 184 1018 26 1006 -311 1773 -972 2205 -241 158 -575 274 -920 320
-110 15 -479 21 -595 10z m460 -675 c504 -82 834 -446 964 -1065 47 -221 61
-380 61 -705 0 -324 -13 -478 -60 -703 -120 -582 -399 -932 -840 -1056 -135
-37 -254 -50 -417 -43 -205 8 -348 43 -503 123 -314 161 -532 492 -629 951
-54 259 -61 341 -61 733 0 393 7 473 61 725 117 543 409 899 829 1012 165 44
419 56 595 28z"/>
<path d="M17890 7150 c-400 -47 -794 -288 -1078 -658 -39 -51 -73 -89 -75 -85
-3 5 -41 126 -85 270 -45 144 -88 276 -97 293 -23 44 -88 87 -152 100 -34 7
-126 11 -242 8 -176 -3 -189 -4 -235 -28 -27 -14 -63 -42 -80 -63 l-31 -39 0
-2262 0 -2263 28 -36 c15 -20 49 -49 75 -64 l47 -28 290 -3 c204 -2 303 0 333
9 62 17 120 63 143 112 18 41 19 87 19 1417 0 1374 1 1440 36 1635 73 414 320
749 624 846 123 39 338 22 660 -51 206 -47 231 -51 288 -44 72 9 140 55 169
114 29 59 153 493 153 534 -1 101 -110 199 -280 250 -127 39 -352 54 -510 36z"/>
<path d="M33205 7153 c-574 -47 -975 -208 -1309 -524 -439 -417 -663 -1001
-692 -1804 -19 -534 81 -1072 275 -1469 269 -552 714 -911 1292 -1040 209 -46
342 -59 579 -53 237 6 335 21 497 78 237 83 482 280 662 532 19 26 37 47 41
47 4 0 12 -26 19 -57 93 -424 104 -453 200 -500 l56 -28 235 0 235 0 45 26
c25 15 53 36 63 47 47 52 46 24 47 1298 0 1232 -3 1342 -41 1609 -101 704
-383 1214 -842 1519 -227 152 -484 246 -802 296 -159 24 -417 35 -560 23z
m312 -673 c489 -64 789 -353 936 -900 126 -470 129 -1252 6 -1735 -139 -548
-430 -843 -899 -915 -96 -14 -323 -14 -420 0 -530 80 -827 463 -925 1190 -55
411 -39 1004 36 1375 93 460 307 768 629 906 181 77 421 107 637 79z"/>
<path d="M1478 7064 c-68 -21 -101 -67 -106 -148 -4 -62 85 -396 1154 -4311
64 -235 83 -271 159 -297 45 -16 100 -17 580 -15 524 2 530 2 571 24 57 31
101 84 118 146 8 28 92 340 186 692 94 352 198 739 230 860 457 1704 465 1737
509 2060 20 143 51 400 51 419 0 5 2 7 5 5 2 -3 18 -110 35 -239 64 -486 79
-559 240 -1160 67 -250 164 -615 216 -810 53 -195 122 -456 155 -580 290
-1088 352 -1308 374 -1341 13 -20 40 -44 62 -55 36 -18 70 -19 548 -22 348 -2
524 1 555 8 63 16 115 52 144 102 16 28 82 255 186 643 89 330 231 859 316
1175 180 665 290 1077 439 1630 59 217 145 537 192 710 70 259 84 324 81 368
-5 60 -28 97 -79 127 -32 19 -55 20 -346 23 -192 2 -335 -1 -370 -8 -75 -13
-142 -55 -170 -105 -15 -28 -133 -546 -376 -1645 -196 -883 -363 -1641 -371
-1685 -24 -121 -71 -423 -106 -675 -17 -123 -33 -226 -35 -229 -8 -7 -13 20
-40 219 -52 377 -98 600 -200 975 -24 88 -96 354 -160 590 -64 237 -136 502
-160 590 -24 88 -89 329 -145 535 -281 1038 -341 1258 -357 1293 -22 50 -83
102 -147 124 -46 16 -94 18 -476 18 -334 0 -433 -3 -464 -14 -45 -16 -111 -72
-132 -113 -8 -15 -156 -558 -329 -1205 -172 -648 -357 -1340 -410 -1538 -179
-670 -186 -699 -275 -1235 -23 -134 -43 -246 -44 -248 -5 -4 -12 54 -36 298
-23 222 -62 510 -86 630 -14 67 -119 504 -369 1540 -46 190 -149 615 -229 945
-79 330 -157 649 -172 708 -32 128 -63 179 -132 210 -45 21 -62 22 -392 24
-281 2 -354 -1 -392 -13z"/>
<path d="M36687 7070 c-104 -18 -173 -82 -164 -150 3 -19 441 -1054 975 -2299
l970 -2264 -24 -91 c-128 -483 -366 -869 -670 -1088 -101 -72 -187 -115 -353
-177 -148 -55 -190 -86 -216 -155 -15 -42 -19 -72 -17 -117 3 -34 172 -304
221 -351 50 -47 132 -73 210 -65 89 8 427 137 600 228 410 215 708 552 877
991 37 94 135 374 569 1623 179 517 263 757 440 1265 62 179 185 532 273 785
88 253 251 721 363 1040 224 641 231 663 222 707 -7 38 -61 90 -110 108 -50
18 -582 26 -695 11 -95 -13 -169 -49 -204 -101 -13 -19 -76 -192 -138 -385
-143 -439 -298 -919 -369 -1140 -30 -93 -158 -489 -285 -880 -126 -390 -251
-790 -278 -887 -26 -98 -49 -176 -51 -174 -2 2 -15 57 -28 122 -46 218 -60
262 -235 724 -61 162 -142 376 -180 475 -37 99 -118 313 -180 475 -62 162
-143 376 -180 475 -38 99 -118 313 -180 475 -61 162 -138 365 -170 450 -32 85
-66 172 -75 194 -26 62 -99 132 -164 158 -53 21 -71 22 -381 24 -179 2 -347
-1 -373 -6z"/>
<path d="M41258 3600 c-180 -22 -333 -114 -435 -262 -123 -179 -154 -389 -86
-590 60 -178 229 -341 413 -399 145 -46 329 -33 467 32 79 38 188 124 234 185
90 120 129 240 129 399 0 188 -54 320 -186 452 -65 65 -98 89 -165 121 -123
58 -237 77 -371 62z m194 -111 c347 -74 530 -463 365 -773 -141 -264 -482
-367 -734 -220 -63 37 -152 123 -195 188 -107 165 -106 381 2 560 69 114 217
221 341 245 64 13 160 13 221 0z"/>
<path d="M41080 2975 l0 -355 85 0 85 0 0 145 0 145 43 0 c38 0 44 -3 56 -32
8 -18 38 -84 67 -145 l53 -113 96 0 c52 0 95 2 95 5 0 3 -34 73 -76 157 -75
151 -79 167 -37 168 7 0 30 17 52 38 86 82 79 227 -15 291 -56 39 -133 51
-326 51 l-178 0 0 -355z m340 230 c37 -19 60 -52 60 -88 0 -69 -45 -97 -155
-97 l-75 0 0 100 0 100 70 0 c43 0 82 -6 100 -15z"/>
</g>
</svg>
